<svg width="21" height="23" viewBox="0 0 21 23" fill="none" xmlns="http://www.w3.org/2000/svg">
<path id="Vector" d="M14.2774 13.6529C12.9545 13.6529 12.3615 14.3714 10.2177 14.3714C8.02816 14.3714 7.43517 13.6529 6.11234 13.6529C2.73687 13.6529 0 16.3924 0 19.7159V20.8386C0 22.0511 0.957906 22.9943 2.1895 22.9943H18.2458C19.4318 22.9943 20.4353 22.0511 20.4353 20.8386V19.7159C20.4353 16.3924 17.6528 13.6529 14.2774 13.6529ZM18.2458 20.8386H2.1895V19.7159C2.1895 17.5601 3.92284 15.8086 6.11234 15.8086C6.79657 15.8086 7.8457 16.5271 10.2177 16.5271C12.544 16.5271 13.5931 15.8086 14.2774 15.8086C16.4669 15.8086 18.2458 17.5601 18.2458 19.7159V20.8386ZM10.2177 12.9343C13.8212 12.9343 16.7862 10.06 16.7862 6.46714C16.7862 2.9192 13.8212 0 10.2177 0C6.56849 0 3.64916 2.9192 3.64916 6.46714C3.64916 10.06 6.56849 12.9343 10.2177 12.9343ZM10.2177 2.15571C12.5896 2.15571 14.5967 4.13178 14.5967 6.46714C14.5967 8.84741 12.5896 10.7786 10.2177 10.7786C7.80008 10.7786 5.83866 8.84741 5.83866 6.46714C5.83866 4.13178 7.80008 2.15571 10.2177 2.15571Z" fill="#CCCCD8"/>
</svg>
