<svg width="26" height="26" viewBox="0 0 26 26" fill="none" xmlns="http://www.w3.org/2000/svg">
<path id="Vector" d="M1.79007 1.08685L6.46416 0.058751C7.55808 -0.186035 8.652 0.352493 9.04979 1.33164L11.2377 6.32524C11.6355 7.20647 11.3868 8.28351 10.5913 8.91996L8.60229 10.5355C9.99457 13.0813 12.1824 15.1864 14.7681 16.6062L16.409 14.6479C17.0554 13.8646 18.1493 13.6198 19.0444 14.0115L24.1163 16.1166C25.1106 16.5572 25.6578 17.6343 25.4091 18.7113L24.3649 23.3133C24.1163 24.3414 23.1715 25.0268 22.1273 25.0268C9.94484 25.0268 0 15.3333 0 3.28992C0 2.26182 0.745862 1.33164 1.79007 1.08685ZM22.0278 22.6768L23.072 18.2707L18.199 16.2145L15.4145 19.5436C10.4918 17.2426 7.95587 14.7458 5.61884 9.8991L9.00008 7.15751L6.91166 2.35972L2.38676 3.38782C2.43649 14.0115 11.2377 22.628 22.0278 22.6768Z" fill="#CCCCD8"/>
</svg>
